<svg width="320" height="240" viewBox="0 0 320 240" fill="none" xmlns="http://www.w3.org/2000/svg">
<g clip-path="url(#clip0_1197_166525)">
<path d="M0 194.652C0 202.522 6.34963 208.916 14.1646 208.916H139.692C140.913 208.916 142.134 209.408 142.867 210.146L160.45 227.853C160.939 228.591 161.916 228.837 162.892 228.345C163.625 228.099 164.358 227.115 164.358 226.378V144.482C164.358 136.612 158.008 130.218 150.193 130.218H14.1646C6.34963 130.218 0 136.612 0 144.482V194.652Z" fill="#F0F0F5"/>
<path fill-rule="evenodd" clip-rule="evenodd" d="M27.7773 158.574C27.7773 155.698 30.043 153.366 32.8378 153.366H131.517C134.312 153.366 136.578 155.698 136.578 158.574C136.578 161.451 134.312 163.783 131.517 163.783H32.8378C30.043 163.783 27.7773 161.451 27.7773 158.574Z" fill="#E8E8EE"/>
<path fill-rule="evenodd" clip-rule="evenodd" d="M27.7773 158.574C27.7773 155.698 30.043 153.366 32.8378 153.366H131.517C134.312 153.366 136.578 155.698 136.578 158.574C136.578 161.451 134.312 163.783 131.517 163.783H32.8378C30.043 163.783 27.7773 161.451 27.7773 158.574Z" fill="url(#paint0_linear_1197_166525)"/>
<path fill-rule="evenodd" clip-rule="evenodd" d="M86.8086 180.566C86.8086 177.69 89.094 175.358 91.9132 175.358H131.474C134.293 175.358 136.579 177.69 136.579 180.566C136.579 183.443 134.293 185.775 131.474 185.775H91.9132C89.094 185.775 86.8086 183.443 86.8086 180.566Z" fill="#E8E8EE"/>
<path fill-rule="evenodd" clip-rule="evenodd" d="M86.8086 180.566C86.8086 177.69 89.094 175.358 91.9132 175.358H131.474C134.293 175.358 136.579 177.69 136.579 180.566C136.579 183.443 134.293 185.775 131.474 185.775H91.9132C89.094 185.775 86.8086 183.443 86.8086 180.566Z" fill="url(#paint1_linear_1197_166525)"/>
<path d="M82.1768 57.3413C82.1768 66.454 89.5237 73.858 98.5661 73.858H123.084C124.496 73.858 125.909 74.4276 126.757 75.2819L147.102 95.7854C147.668 96.6397 148.798 96.9245 149.928 96.3549C150.776 96.0702 151.624 94.9311 151.624 94.0768V27.5167C151.624 18.404 144.277 11 135.234 11H98.5661C89.5237 11 82.1768 18.404 82.1768 27.5167V57.3413Z" fill="#E1E1E8"/>
<path d="M320 133.337C320 140.435 314.495 146.065 307.239 146.065H203.332C202.331 146.065 201.08 146.555 200.329 147.289L184.065 163.198C183.564 163.688 182.563 163.933 181.813 163.688C181.062 163.443 180.562 162.709 180.562 161.975V88.5456C180.562 81.4474 186.317 75.8179 193.573 75.8179H306.988C314.245 75.8179 320 81.4474 320 88.5456V133.337Z" fill="#E1E1E8"/>
<path fill-rule="evenodd" clip-rule="evenodd" d="M298.623 100.123C298.623 97.566 296.647 95.4932 294.209 95.4932H208.127C205.689 95.4932 203.712 97.566 203.712 100.123C203.712 102.68 205.689 104.753 208.127 104.753H294.209C296.647 104.753 298.623 102.68 298.623 100.123Z" fill="url(#paint2_linear_1197_166525)"/>
<path fill-rule="evenodd" clip-rule="evenodd" d="M203.71 123.851C203.71 121.614 205.942 119.8 208.696 119.8H247.337C250.091 119.8 252.323 121.614 252.323 123.851C252.323 126.088 250.091 127.902 247.337 127.902H208.696C205.942 127.902 203.71 126.088 203.71 123.851Z" fill="url(#paint3_linear_1197_166525)"/>
<path d="M116.901 23.7324C106.631 23.7324 98.3818 32.0661 98.3818 42.2516C98.3818 52.4372 106.715 60.7708 116.901 60.7708C127.087 60.7708 135.42 52.5213 135.42 42.2516C135.42 32.0661 127.171 23.8166 116.901 23.7324ZM123.972 33.0762C125.656 33.0762 127.002 34.423 127.002 36.1066C127.002 37.7902 125.656 39.137 123.972 39.137C122.288 39.137 120.942 37.7902 120.942 36.1066C120.942 34.423 122.288 33.0762 123.972 33.0762ZM109.914 32.992C111.598 32.992 112.945 34.3389 112.945 36.0224C112.945 37.706 111.598 39.0528 109.914 39.0528C108.231 39.0528 106.884 37.706 106.884 36.0224C106.884 34.423 108.231 32.992 109.914 32.992ZM127.592 46.5447C125.319 52.4372 118.753 55.3834 112.86 53.1948C109.83 52.0163 107.389 49.5751 106.21 46.5447C105.958 45.7871 106.295 45.0295 107.052 44.777C107.221 44.6928 107.389 44.6928 107.557 44.6928H126.245C127.002 44.6928 127.676 45.3662 127.676 46.1238C127.676 46.208 127.676 46.3763 127.592 46.5447Z" fill="white"/>
</g>
<defs>
<linearGradient id="paint0_linear_1197_166525" x1="-11.0799" y1="158.574" x2="198.749" y2="158.574" gradientUnits="userSpaceOnUse">
<stop stop-color="#CDCED6"/>
<stop offset="1" stop-color="#E1E1E8"/>
</linearGradient>
<linearGradient id="paint1_linear_1197_166525" x1="69.0335" y1="180.566" x2="165.019" y2="180.566" gradientUnits="userSpaceOnUse">
<stop stop-color="#CDCED6"/>
<stop offset="1" stop-color="#E1E1E8"/>
</linearGradient>
<linearGradient id="paint2_linear_1197_166525" x1="197.703" y1="100.509" x2="297.841" y2="91.4643" gradientUnits="userSpaceOnUse">
<stop stop-color="#F7F7FA"/>
<stop offset="1" stop-color="white"/>
</linearGradient>
<linearGradient id="paint3_linear_1197_166525" x1="255.401" y1="124.188" x2="203.836" y2="121.462" gradientUnits="userSpaceOnUse">
<stop stop-color="#F7F7FA"/>
<stop offset="1" stop-color="white"/>
</linearGradient>
<clipPath id="clip0_1197_166525">
<rect width="320" height="240" fill="white"/>
</clipPath>
</defs>
</svg>
