<svg width="320" height="240" viewBox="0 0 320 240" fill="none" xmlns="http://www.w3.org/2000/svg">
<path d="M218.505 142.537C223.384 136.993 205.466 113.251 178.485 89.5082C151.503 65.7655 125.675 51.013 120.796 56.5575C115.917 62.102 133.835 85.8439 160.816 109.587C187.798 133.329 213.626 148.082 218.505 142.537Z" fill="url(#paint0_linear_1189_126507)"/>
<g style="mix-blend-mode:multiply" opacity="0.15">
<path d="M177.577 89.5308C150.872 65.7192 125.309 50.9238 120.481 56.4843C117.345 60.095 123.729 71.4034 135.898 85.4071C145.299 77.7504 162.301 78.0279 192.782 109.227C204.894 121.624 212.898 131.792 217.963 140.141C217.873 131.755 201.26 110.649 177.577 89.5308Z" fill="#E67700"/>
</g>
<path d="M90.8376 97.1933L86.3379 86.8193L75.964 91.3191L80.4637 101.693L90.8376 97.1933Z" fill="url(#paint1_linear_1189_126507)"/>
<path d="M157.099 44.7756L149.104 36.7798L141.108 44.7756L149.104 52.7714L157.099 44.7756Z" fill="#F053A8"/>
<path d="M99.3928 50.4997L91.397 42.5039L83.4012 50.4997L91.397 58.4955L99.3928 50.4997Z" fill="url(#paint2_linear_1189_126507)"/>
<path d="M188.222 39.4418L182 30L172.558 36.2224L178.78 45.6642L188.222 39.4418Z" fill="url(#paint3_linear_1189_126507)"/>
<path d="M230.919 117.619L229.794 106.368L218.542 107.493L219.667 118.744L230.919 117.619Z" fill="url(#paint4_linear_1189_126507)"/>
<path d="M225.985 60.0378L217.989 52.042L209.993 60.0378L217.989 68.0336L225.985 60.0378Z" fill="url(#paint5_linear_1189_126507)"/>
<path d="M237.154 198.505L231.5 188.712L221.708 194.366L227.362 204.159L237.154 198.505Z" fill="url(#paint6_linear_1189_126507)"/>
<path d="M248.247 143.949L240.251 135.954L232.255 143.949L240.251 151.945L248.247 143.949Z" fill="#F053A8"/>
<path d="M154.991 117.932L146.55 109.661L195.074 62.0989L208.803 75.5553L241.557 43.4502L249.998 51.7232L208.803 92.0985L195.074 78.642L154.991 117.932Z" fill="url(#paint7_linear_1189_126507)"/>
<path d="M233.196 105.019L167.543 129.879L171.757 141.008L237.41 116.147L233.196 105.019Z" fill="url(#paint8_linear_1189_126507)"/>
<path d="M156.345 31.8192L138.648 79.4917L149.804 83.6331L167.501 35.9606L156.345 31.8192Z" fill="url(#paint9_linear_1189_126507)"/>
<path d="M219.708 139.487C219.41 138.548 219.062 137.627 218.665 136.726C219.512 139.304 219.5 141.265 218.48 142.422C213.594 147.963 187.73 133.22 160.711 109.494C133.692 85.7684 115.749 62.0434 120.634 56.5028C121.655 55.3453 123.602 55.0845 126.273 55.5943C125.327 55.3163 124.366 55.0891 123.396 54.9139C119.747 54.365 116.23 56.5115 115.058 60.0031L106.19 85.5174L101.759 98.267V98.2669L89.418 133.773L84.6451 147.506L74.9079 175.52L71.0313 186.674C70.9223 186.988 70.8308 187.305 70.7394 187.622C68.8058 194.078 70.7343 201.068 75.7064 205.626L75.8376 205.742L75.9675 205.856C81.1306 210.199 88.3253 211.219 94.4967 208.484C94.8005 208.353 95.1043 208.222 95.4024 208.074L105.996 202.819L132.603 189.618L145.646 183.147L178.255 166.969L191.477 160.409L215.71 148.386C219.031 146.782 220.717 143.029 219.708 139.487Z" fill="url(#paint10_linear_1189_126507)"/>
<path d="M75.0985 175.311L71.2311 186.512C71.1223 186.827 71.0311 187.146 70.9399 187.464C72.4325 192.889 75.4999 197.743 79.7508 201.409C83.911 205.178 89.0947 207.617 94.6406 208.414C94.9436 208.283 95.2468 208.151 95.5441 208.003L106.112 202.725C98.7872 201.886 91.9186 198.726 86.5022 193.702C80.8526 188.944 76.8583 182.503 75.0985 175.311Z" fill="url(#paint11_linear_1189_126507)"/>
<path d="M106.194 84.8286L101.034 99.7392C102.098 110.138 113.287 125.351 131.291 141.228C149.295 157.105 167.536 167.846 177.964 167.582L192.067 160.555C180.809 159.691 159.471 147.859 139.971 130.663C120.472 113.468 108.481 95.9092 106.194 84.8286Z" fill="url(#paint12_linear_1189_126507)"/>
<path d="M89.6971 133.125L85.0024 147.116C86.3727 155.535 92.8306 166.209 102.843 175.316C112.855 184.423 123.919 189.687 132.173 190.021L145.002 183.428C135.954 182.675 121.801 177.565 109.943 166.779C98.0852 155.993 91.5703 142.305 89.6971 133.125Z" fill="url(#paint13_linear_1189_126507)"/>
<g style="mix-blend-mode:multiply" opacity="0.3">
<path d="M219.707 139.493C219.411 138.554 219.063 137.633 218.668 136.731C219.512 139.31 219.5 141.271 218.482 142.428C213.608 147.969 187.804 133.226 160.848 109.498C133.891 85.7706 115.99 62.0439 120.865 56.5029C121.883 55.3454 123.825 55.0845 126.49 55.5944C125.546 55.3163 124.588 55.0891 123.62 54.9139C119.979 54.365 116.471 56.5116 115.301 60.0034C116.801 82.2824 149.202 107.847 157.4 113.974C159.575 115.574 161.626 117.335 163.537 119.243C203.227 159.498 107.131 197.198 78.2749 207.333C83.2512 210.419 89.4284 210.854 94.7877 208.495C95.0907 208.364 95.3939 208.233 95.6912 208.085L106.26 202.829L132.805 189.628L145.818 183.156L178.352 166.977L191.542 160.417L215.719 148.393C219.033 146.789 220.715 143.035 219.707 139.493Z" fill="#E67700"/>
</g>
<path d="M183.644 198.449L177.99 188.656L168.197 194.31L173.851 204.102L183.644 198.449Z" fill="url(#paint14_linear_1189_126507)"/>
<defs>
<linearGradient id="paint0_linear_1189_126507" x1="174.732" y1="108.246" x2="190.845" y2="100.724" gradientUnits="userSpaceOnUse">
<stop stop-color="#FAD961"/>
<stop offset="1" stop-color="#F76B1C"/>
</linearGradient>
<linearGradient id="paint1_linear_1189_126507" x1="75.7279" y1="93.375" x2="91.0737" y2="95.1373" gradientUnits="userSpaceOnUse">
<stop stop-color="#F7D702"/>
<stop offset="1" stop-color="#FAC400"/>
</linearGradient>
<linearGradient id="paint2_linear_1189_126507" x1="80.2507" y1="53.743" x2="108.597" y2="46.4945" gradientUnits="userSpaceOnUse">
<stop stop-color="#7ED3FB"/>
<stop offset="1" stop-color="#0E54BB"/>
</linearGradient>
<linearGradient id="paint3_linear_1189_126507" x1="172.558" y1="37.8321" x2="188.222" y2="37.8321" gradientUnits="userSpaceOnUse">
<stop stop-color="#F7D702"/>
<stop offset="1" stop-color="#FAC400"/>
</linearGradient>
<linearGradient id="paint4_linear_1189_126507" x1="217.691" y1="109.379" x2="231.77" y2="115.733" gradientUnits="userSpaceOnUse">
<stop stop-color="#F7D702"/>
<stop offset="1" stop-color="#FAC400"/>
</linearGradient>
<linearGradient id="paint5_linear_1189_126507" x1="209.993" y1="60.0378" x2="225.985" y2="60.0378" gradientUnits="userSpaceOnUse">
<stop stop-color="#222630" stop-opacity="0.7"/>
<stop offset="0.03289" stop-color="#222630" stop-opacity="0.72"/>
<stop offset="0.47033" stop-color="#222630" stop-opacity="0.93079"/>
<stop offset="1" stop-color="#222630"/>
</linearGradient>
<linearGradient id="paint6_linear_1189_126507" x1="221.708" y1="194.366" x2="237.154" y2="198.505" gradientUnits="userSpaceOnUse">
<stop stop-color="#222630" stop-opacity="0.7"/>
<stop offset="0.03289" stop-color="#222630" stop-opacity="0.72"/>
<stop offset="0.47033" stop-color="#222630" stop-opacity="0.93079"/>
<stop offset="1" stop-color="#222630"/>
</linearGradient>
<linearGradient id="paint7_linear_1189_126507" x1="159.68" y1="100.786" x2="228.997" y2="44.794" gradientUnits="userSpaceOnUse">
<stop stop-color="#7ED3FB" stop-opacity="0"/>
<stop offset="1" stop-color="#0E54BB"/>
</linearGradient>
<linearGradient id="paint8_linear_1189_126507" x1="194.005" y1="128.769" x2="232.757" y2="114.095" gradientUnits="userSpaceOnUse">
<stop stop-color="#222630" stop-opacity="0.238472"/>
<stop offset="1" stop-color="#222630"/>
</linearGradient>
<linearGradient id="paint9_linear_1189_126507" x1="152.797" y1="65.3196" x2="163.243" y2="37.1806" gradientUnits="userSpaceOnUse">
<stop stop-color="#222630" stop-opacity="0.238472"/>
<stop offset="1" stop-color="#222630"/>
</linearGradient>
<linearGradient id="paint10_linear_1189_126507" x1="110.525" y1="148.382" x2="80.8532" y2="133.245" gradientUnits="userSpaceOnUse">
<stop stop-color="#F7D702"/>
<stop offset="1" stop-color="#FAC400"/>
</linearGradient>
<linearGradient id="paint11_linear_1189_126507" x1="72.0969" y1="191.863" x2="98.4039" y2="217.018" gradientUnits="userSpaceOnUse">
<stop stop-color="#F053A8"/>
<stop offset="1" stop-color="#0E54BB"/>
</linearGradient>
<linearGradient id="paint12_linear_1189_126507" x1="104.028" y1="126.208" x2="170.261" y2="187.672" gradientUnits="userSpaceOnUse">
<stop stop-color="#F053A8"/>
<stop offset="1" stop-color="#0E54BB"/>
</linearGradient>
<linearGradient id="paint13_linear_1189_126507" x1="86.9761" y1="161.573" x2="132.275" y2="202.789" gradientUnits="userSpaceOnUse">
<stop stop-color="#F053A8"/>
<stop offset="1" stop-color="#0E54BB"/>
</linearGradient>
<linearGradient id="paint14_linear_1189_126507" x1="164.315" y1="196.627" x2="193.571" y2="196.962" gradientUnits="userSpaceOnUse">
<stop stop-color="#7ED3FB"/>
<stop offset="1" stop-color="#0E54BB"/>
</linearGradient>
</defs>
</svg>
