<svg xmlns="http://www.w3.org/2000/svg" width="161" height="121" viewBox="0 0 161 121" fill="none">
  <path d="M133.825 35.5H46.16C44.2388 35.5 42.7221 33.789 42.7221 31.6217V9.37835C42.7221 7.21105 44.2388 5.5 46.16 5.5H133.724C135.645 5.5 137.162 7.21105 137.162 9.37835V31.6217C137.263 33.789 135.645 35.5 133.825 35.5Z" fill="#E8E8EE"/>
  <path opacity="0.8" d="M66.0555 20.5C66.0555 22.7815 65.0185 24.8555 63.463 26.3074C62.115 27.5518 60.248 28.2777 58.278 28.2777C56.3075 28.2777 54.4405 27.5518 53.0925 26.3074C51.4335 24.8555 50.5 22.7815 50.5 20.5C50.5 16.2481 54.026 12.7222 58.278 12.7222C62.5295 12.7222 66.0555 16.2481 66.0555 20.5Z" fill="url(#paint0_linear_50_452)"/>
  <path fill-rule="evenodd" clip-rule="evenodd" d="M71.697 16.0557C71.697 14.8284 72.615 13.8335 73.748 13.8335H113.748C114.881 13.8335 115.799 14.8284 115.799 16.0557C115.799 17.283 114.881 18.2779 113.748 18.2779H73.748C72.615 18.2779 71.697 17.283 71.697 16.0557Z" fill="#F0F0F5"/>
  <path fill-rule="evenodd" clip-rule="evenodd" d="M71.611 24.9444C71.611 23.7171 72.529 22.7222 73.662 22.7222H89.5595C90.6925 22.7222 91.611 23.7171 91.611 24.9444C91.611 26.1717 90.6925 27.1666 89.5595 27.1666H73.662C72.529 27.1666 71.611 26.1717 71.611 24.9444Z" fill="#F0F0F5"/>
  <path opacity="0.8" fill-rule="evenodd" clip-rule="evenodd" d="M71.611 16.0557C71.611 14.8284 72.529 13.8335 73.662 13.8335H113.662C114.795 13.8335 115.713 14.8284 115.713 16.0557C115.713 17.283 114.795 18.2779 113.662 18.2779H73.662C72.529 18.2779 71.611 17.283 71.611 16.0557Z" fill="url(#paint1_linear_50_452)"/>
  <g opacity="0.8">
    <path fill-rule="evenodd" clip-rule="evenodd" d="M71.611 24.9444C71.611 23.7171 72.529 22.7222 73.662 22.7222H89.5595C90.6925 22.7222 91.611 23.7171 91.611 24.9444C91.611 26.1717 90.6925 27.1666 89.5595 27.1666H73.662C72.529 27.1666 71.611 26.1717 71.611 24.9444Z" fill="#E1E1E8"/>
    <path fill-rule="evenodd" clip-rule="evenodd" d="M71.611 24.9444C71.611 23.7171 72.529 22.7222 73.662 22.7222H89.5595C90.6925 22.7222 91.611 23.7171 91.611 24.9444C91.611 26.1717 90.6925 27.1666 89.5595 27.1666H73.662C72.529 27.1666 71.611 26.1717 71.611 24.9444Z" fill="url(#paint2_linear_50_452)"/>
    <path fill-rule="evenodd" clip-rule="evenodd" d="M71.611 24.9444C71.611 23.7171 72.529 22.7222 73.662 22.7222H89.5595C90.6925 22.7222 91.611 23.7171 91.611 24.9444C91.611 26.1717 90.6925 27.1666 89.5595 27.1666H73.662C72.529 27.1666 71.611 26.1717 71.611 24.9444Z" fill="url(#paint3_linear_50_452)"/>
  </g>
  <path d="M114.936 75.5H27.2713C25.3502 75.5 23.8335 73.789 23.8335 71.6215V49.3783C23.8335 47.211 25.3502 45.5 27.2713 45.5H114.835C116.756 45.5 118.273 47.211 118.273 49.3783V71.6215C118.374 73.789 116.756 75.5 114.936 75.5Z" fill="#F0F0F5"/>
  <path d="M47.1664 60.4999C47.1664 62.7814 46.1293 64.8554 44.5738 66.3074C43.2256 67.5519 41.359 68.2774 39.3886 68.2774C37.4182 68.2774 35.5516 67.5519 34.2034 66.3074C32.5441 64.8554 31.6108 62.7814 31.6108 60.4999C31.6108 56.2479 35.1367 52.7219 39.3886 52.7219C43.6404 52.7219 47.1664 56.2479 47.1664 60.4999Z" fill="url(#paint4_linear_50_452)"/>
  <path d="M47.1664 60.4999C47.1664 62.7814 46.1293 64.8554 44.5738 66.3074C43.2256 67.5519 41.359 68.2774 39.3886 68.2774C37.4182 68.2774 35.5516 67.5519 34.2034 66.3074C32.5441 64.8554 31.6108 62.7814 31.6108 60.4999C31.6108 56.2479 35.1367 52.7219 39.3886 52.7219C43.6404 52.7219 47.1664 56.2479 47.1664 60.4999Z" fill="url(#paint5_linear_50_452)"/>
  <path fill-rule="evenodd" clip-rule="evenodd" d="M52.808 56.0555C52.808 54.8285 53.7265 53.8335 54.8595 53.8335H94.8595C95.9925 53.8335 96.9105 54.8285 96.9105 56.0555C96.9105 57.283 95.9925 58.278 94.8595 58.278H54.8595C53.7265 58.278 52.808 57.283 52.808 56.0555Z" fill="url(#paint6_linear_50_452)"/>
  <path fill-rule="evenodd" clip-rule="evenodd" d="M52.722 64.9444C52.722 63.7169 53.6405 62.7219 54.7735 62.7219H70.671C71.804 62.7219 72.722 63.7169 72.722 64.9444C72.722 66.1714 71.804 67.1664 70.671 67.1664H54.7735C53.6405 67.1664 52.722 66.1714 52.722 64.9444Z" fill="url(#paint7_linear_50_452)"/>
  <path d="M133.825 115.5H46.16C44.2388 115.5 42.7221 113.789 42.7221 111.621V89.3785C42.7221 87.211 44.2388 85.5 46.16 85.5H133.724C135.645 85.5 137.162 87.211 137.162 89.3785V111.621C137.263 113.789 135.645 115.5 133.825 115.5Z" fill="#E8E8EE"/>
  <path opacity="0.8" d="M66.0555 100.5C66.0555 102.781 65.0185 104.855 63.463 106.307C62.115 107.552 60.248 108.277 58.278 108.277C56.3075 108.277 54.4405 107.552 53.0925 106.307C51.4335 104.855 50.5 102.781 50.5 100.5C50.5 96.2479 54.026 92.7219 58.278 92.7219C62.5295 92.7219 66.0555 96.2479 66.0555 100.5Z" fill="url(#paint8_linear_50_452)"/>
  <g opacity="0.8">
    <path fill-rule="evenodd" clip-rule="evenodd" d="M71.611 96.0555C71.611 94.8285 72.529 93.8335 73.662 93.8335H113.662C114.795 93.8335 115.713 94.8285 115.713 96.0555C115.713 97.283 114.795 98.278 113.662 98.278H73.662C72.529 98.278 71.611 97.283 71.611 96.0555Z" fill="#E1E1E8"/>
    <path fill-rule="evenodd" clip-rule="evenodd" d="M71.611 96.0555C71.611 94.8285 72.529 93.8335 73.662 93.8335H113.662C114.795 93.8335 115.713 94.8285 115.713 96.0555C115.713 97.283 114.795 98.278 113.662 98.278H73.662C72.529 98.278 71.611 97.283 71.611 96.0555Z" fill="url(#paint9_linear_50_452)"/>
    <path fill-rule="evenodd" clip-rule="evenodd" d="M71.611 96.0555C71.611 94.8285 72.529 93.8335 73.662 93.8335H113.662C114.795 93.8335 115.713 94.8285 115.713 96.0555C115.713 97.283 114.795 98.278 113.662 98.278H73.662C72.529 98.278 71.611 97.283 71.611 96.0555Z" fill="url(#paint10_linear_50_452)"/>
  </g>
  <g opacity="0.8">
    <path fill-rule="evenodd" clip-rule="evenodd" d="M71.611 104.944C71.611 103.717 72.529 102.722 73.662 102.722H89.5595C90.6925 102.722 91.611 103.717 91.611 104.944C91.611 106.171 90.6925 107.166 89.5595 107.166H73.662C72.529 107.166 71.611 106.171 71.611 104.944Z" fill="#E1E1E8"/>
    <path fill-rule="evenodd" clip-rule="evenodd" d="M71.611 104.944C71.611 103.717 72.529 102.722 73.662 102.722H89.5595C90.6925 102.722 91.611 103.717 91.611 104.944C91.611 106.171 90.6925 107.166 89.5595 107.166H73.662C72.529 107.166 71.611 106.171 71.611 104.944Z" fill="url(#paint11_linear_50_452)"/>
    <path fill-rule="evenodd" clip-rule="evenodd" d="M71.611 104.944C71.611 103.717 72.529 102.722 73.662 102.722H89.5595C90.6925 102.722 91.611 103.717 91.611 104.944C91.611 106.171 90.6925 107.166 89.5595 107.166H73.662C72.529 107.166 71.611 106.171 71.611 104.944Z" fill="url(#paint12_linear_50_452)"/>
  </g>
  <defs>
    <linearGradient id="paint0_linear_50_452" x1="81.889" y1="20.5" x2="50.502" y2="20.2368" gradientUnits="userSpaceOnUse">
      <stop stop-color="#F7F7FA"/>
      <stop offset="1" stop-color="white"/>
    </linearGradient>
    <linearGradient id="paint1_linear_50_452" x1="160.604" y1="16.0557" x2="72.223" y2="8.70125" gradientUnits="userSpaceOnUse">
      <stop stop-color="#F7F7FA"/>
      <stop offset="1" stop-color="white"/>
    </linearGradient>
    <linearGradient id="paint2_linear_50_452" x1="64.468" y1="24.9444" x2="103.039" y2="24.9444" gradientUnits="userSpaceOnUse">
      <stop stop-color="#CDCED6"/>
      <stop offset="1" stop-color="#E1E1E8"/>
    </linearGradient>
    <linearGradient id="paint3_linear_50_452" x1="111.968" y1="24.9444" x2="71.668" y2="23.4236" gradientUnits="userSpaceOnUse">
      <stop stop-color="#F7F7FA"/>
      <stop offset="1" stop-color="white"/>
    </linearGradient>
    <linearGradient id="paint4_linear_50_452" x1="26.0553" y1="60.4999" x2="56.0555" y2="60.4999" gradientUnits="userSpaceOnUse">
      <stop stop-color="#A9ABB8"/>
      <stop offset="1" stop-color="#E1E1E8"/>
    </linearGradient>
    <linearGradient id="paint5_linear_50_452" x1="26.0553" y1="60.4999" x2="56.0555" y2="60.4999" gradientUnits="userSpaceOnUse">
      <stop stop-color="#CDCED6"/>
      <stop offset="1" stop-color="#E1E1E8"/>
    </linearGradient>
    <linearGradient id="paint6_linear_50_452" x1="37.0572" y1="56.0555" x2="122.112" y2="56.0555" gradientUnits="userSpaceOnUse">
      <stop stop-color="#CDCED6"/>
      <stop offset="1" stop-color="#E1E1E8"/>
    </linearGradient>
    <linearGradient id="paint7_linear_50_452" x1="45.5793" y1="64.9444" x2="84.1505" y2="64.9444" gradientUnits="userSpaceOnUse">
      <stop stop-color="#CDCED6"/>
      <stop offset="1" stop-color="#E1E1E8"/>
    </linearGradient>
    <linearGradient id="paint8_linear_50_452" x1="81.889" y1="100.5" x2="50.502" y2="100.236" gradientUnits="userSpaceOnUse">
      <stop stop-color="#F7F7FA"/>
      <stop offset="1" stop-color="white"/>
    </linearGradient>
    <linearGradient id="paint9_linear_50_452" x1="55.86" y1="96.0555" x2="140.915" y2="96.0555" gradientUnits="userSpaceOnUse">
      <stop stop-color="#CDCED6"/>
      <stop offset="1" stop-color="#E1E1E8"/>
    </linearGradient>
    <linearGradient id="paint10_linear_50_452" x1="160.603" y1="96.0555" x2="72.223" y2="88.701" gradientUnits="userSpaceOnUse">
      <stop stop-color="#F7F7FA"/>
      <stop offset="1" stop-color="white"/>
    </linearGradient>
    <linearGradient id="paint11_linear_50_452" x1="64.468" y1="104.944" x2="103.039" y2="104.944" gradientUnits="userSpaceOnUse">
      <stop stop-color="#CDCED6"/>
      <stop offset="1" stop-color="#E1E1E8"/>
    </linearGradient>
    <linearGradient id="paint12_linear_50_452" x1="111.968" y1="104.944" x2="71.668" y2="103.423" gradientUnits="userSpaceOnUse">
      <stop stop-color="#F7F7FA"/>
      <stop offset="1" stop-color="white"/>
    </linearGradient>
  </defs>
</svg>