
    <svg
      fill="currentColor"
      width="16"
      height="16"
      class="vapor_components_0_24_0_icon_3831f vapor_components_0_24_0_icon_md_3831f"
      viewBox="0 0 16 16"
      xmlns="http://www.w3.org/2000/svg"
    >
      <path d="M6.33333 10.6667C5.12222 10.6667 4.09722 10.2472 3.25833 9.40833C2.41944 8.56944 2 7.54444 2 6.33333C2 5.12222 2.41944 4.09722 3.25833 3.25833C4.09722 2.41944 5.12222 2 6.33333 2C7.54444 2 8.56944 2.41944 9.40833 3.25833C10.2472 4.09722 10.6667 5.12222 10.6667 6.33333C10.6667 6.82222 10.5889 7.28333 10.4333 7.71667C10.2778 8.15 10.0667 8.53333 9.8 8.86667L13.5333 12.6C13.6556 12.7222 13.7167 12.8778 13.7167 13.0667C13.7167 13.2556 13.6556 13.4111 13.5333 13.5333C13.4111 13.6556 13.2556 13.7167 13.0667 13.7167C12.8778 13.7167 12.7222 13.6556 12.6 13.5333L8.86667 9.8C8.53333 10.0667 8.15 10.2778 7.71667 10.4333C7.28333 10.5889 6.82222 10.6667 6.33333 10.6667ZM6.33333 9.33333C7.16667 9.33333 7.875 9.04167 8.45833 8.45833C9.04167 7.875 9.33333 7.16667 9.33333 6.33333C9.33333 5.5 9.04167 4.79167 8.45833 4.20833C7.875 3.625 7.16667 3.33333 6.33333 3.33333C5.5 3.33333 4.79167 3.625 4.20833 4.20833C3.625 4.79167 3.33333 5.5 3.33333 6.33333C3.33333 7.16667 3.625 7.875 4.20833 8.45833C4.79167 9.04167 5.5 9.33333 6.33333 9.33333Z"></path>
    </svg>