<svg xmlns="http://www.w3.org/2000/svg" width="20" height="21" viewBox="0 0 20 21" fill="none">
  <path d="M10.75 17.32C11.9994 16.4579 13.482 15.9974 15 16C15.6917 15.9992 16.3803 16.0941 17.046 16.282C17.1576 16.3135 17.2749 16.3188 17.3888 16.2973C17.5028 16.2759 17.6102 16.2283 17.7026 16.1583C17.795 16.0884 17.87 15.9979 17.9216 15.8941C17.9732 15.7903 18 15.6759 18 15.56V4.56001C17.9998 4.39679 17.9464 4.23807 17.8479 4.10795C17.7494 3.97783 17.6111 3.88341 17.454 3.83901C16.6555 3.61343 15.8297 3.49935 15 3.50001C13.517 3.49783 12.0567 3.86377 10.75 4.56501V17.32ZM9.25 4.56501C7.9433 3.86377 6.48297 3.49783 5 3.50001C4.17028 3.49935 3.34446 3.61343 2.546 3.83901C2.38893 3.88341 2.25063 3.97783 2.1521 4.10795C2.05356 4.23807 2.00016 4.39679 2 4.56001V15.56C2.00011 15.6759 2.02706 15.7901 2.07872 15.8938C2.13039 15.9975 2.20537 16.0878 2.2978 16.1576C2.39022 16.2275 2.49756 16.275 2.61141 16.2964C2.72526 16.3178 2.84252 16.3125 2.954 16.281C3.61978 16.0934 4.30831 15.9989 5 16C6.579 16 8.042 16.487 9.25 17.32V4.56501Z" fill="#525463"/>
</svg>