<svg xmlns="http://www.w3.org/2000/svg" width="16" height="16" viewBox="0 0 16 16" fill="none">
<path d="M12 10H10.6667V11.3333H12M12 7.33333H10.6667V8.66667H12M13.3333 12.6667H8V11.3333H9.33333V10H8V8.66667H9.33333V7.33333H8V6H13.3333M6.66666 4.66667H5.33333V3.33333H6.66666M6.66666 7.33333H5.33333V6H6.66666M6.66666 10H5.33333V8.66667H6.66666M6.66666 12.6667H5.33333V11.3333H6.66666M3.99999 4.66667H2.66666V3.33333H3.99999M3.99999 7.33333H2.66666V6H3.99999M3.99999 10H2.66666V8.66667H3.99999M3.99999 12.6667H2.66666V11.3333H3.99999M8 4.66667V2H1.33333V14H14.6667V4.66667H8Z" fill="#6C6E7E"/>
</svg>