<svg xmlns="http://www.w3.org/2000/svg" width="20" height="21" viewBox="0 0 20 21" fill="none">
<path d="M5.43299 14.417L6.69499 11.262C6.89614 10.7594 7.19722 10.3028 7.57999 9.92L14.5 3.002C14.8978 2.60417 15.4374 2.38068 16 2.38068C16.5626 2.38068 17.1022 2.60417 17.5 3.002C17.8978 3.39982 18.1213 3.93939 18.1213 4.502C18.1213 5.06461 17.8978 5.60417 17.5 6.002L10.58 12.92C10.197 13.303 9.73999 13.605 9.23699 13.806L6.08299 15.068C5.99213 15.1044 5.89259 15.1133 5.79671 15.0936C5.70084 15.0739 5.61284 15.0266 5.54363 14.9574C5.47443 14.8881 5.42705 14.8002 5.40739 14.7043C5.38772 14.6084 5.39662 14.5089 5.43299 14.418" fill="#525463"/>
<path d="M3.5 6.25C3.5 5.56 4.06 5 4.75 5H10C10.1989 5 10.3897 4.92098 10.5303 4.78033C10.671 4.63968 10.75 4.44891 10.75 4.25C10.75 4.05109 10.671 3.86032 10.5303 3.71967C10.3897 3.57902 10.1989 3.5 10 3.5H4.75C4.02065 3.5 3.32118 3.78973 2.80546 4.30546C2.28973 4.82118 2 5.52065 2 6.25V15.75C2 16.4793 2.28973 17.1788 2.80546 17.6945C3.32118 18.2103 4.02065 18.5 4.75 18.5H14.25C14.9793 18.5 15.6788 18.2103 16.1945 17.6945C16.7103 17.1788 17 16.4793 17 15.75V10.5C17 10.3011 16.921 10.1103 16.7803 9.96967C16.6397 9.82902 16.4489 9.75 16.25 9.75C16.0511 9.75 15.8603 9.82902 15.7197 9.96967C15.579 10.1103 15.5 10.3011 15.5 10.5V15.75C15.5 16.44 14.94 17 14.25 17H4.75C4.06 17 3.5 16.44 3.5 15.75V6.25Z" fill="#525463"/>
</svg>