<svg xmlns="http://www.w3.org/2000/svg" width="16" height="16" viewBox="0 0 16 16" fill="none">
  <path d="M5.21665 8L7.79999 10.6C7.92221 10.7222 7.98621 10.8751 7.99199 11.0587C7.99776 11.2422 7.93376 11.4004 7.79999 11.5333C7.67776 11.6556 7.52221 11.7167 7.33332 11.7167C7.14443 11.7167 6.98888 11.6556 6.86665 11.5333L3.79999 8.46667C3.73332 8.4 3.68599 8.32778 3.65799 8.25C3.62999 8.17222 3.61643 8.08889 3.61732 8C3.61821 7.91111 3.63221 7.82778 3.65932 7.75C3.68643 7.67222 3.73354 7.6 3.80065 7.53333L6.86732 4.46667C6.98954 4.34444 7.14243 4.28067 7.32599 4.27533C7.50954 4.27 7.66776 4.33378 7.80065 4.46667C7.92288 4.58889 7.98399 4.74444 7.98399 4.93333C7.98399 5.12222 7.92288 5.27778 7.80065 5.4L5.21665 8ZM9.61665 8L12.2 10.6C12.3222 10.7222 12.3862 10.8751 12.392 11.0587C12.3978 11.2422 12.3338 11.4004 12.2 11.5333C12.0778 11.6556 11.9222 11.7167 11.7333 11.7167C11.5444 11.7167 11.3889 11.6556 11.2667 11.5333L8.19999 8.46667C8.13332 8.4 8.08599 8.32778 8.05799 8.25C8.02999 8.17222 8.01643 8.08889 8.01732 8C8.01821 7.91111 8.03221 7.82778 8.05932 7.75C8.08643 7.67222 8.13354 7.6 8.20065 7.53333L11.2673 4.46667C11.3895 4.34444 11.5424 4.28067 11.726 4.27533C11.9095 4.27 12.0678 4.33378 12.2007 4.46667C12.3229 4.58889 12.384 4.74444 12.384 4.93333C12.384 5.12222 12.3229 5.27778 12.2007 5.4L9.61665 8Z" fill="#3E404C"/>
</svg>