<svg xmlns="http://www.w3.org/2000/svg" width="20" height="21" viewBox="0 0 20 21" fill="none">
<path fill-rule="evenodd" clip-rule="evenodd" d="M9.293 2.79303C9.48053 2.60556 9.73484 2.50024 10 2.50024C10.2652 2.50024 10.5195 2.60556 10.707 2.79303L17.707 9.79303C17.8468 9.93288 17.942 10.111 17.9806 10.305C18.0192 10.499 17.9993 10.7 17.9237 10.8827C17.848 11.0654 17.7199 11.2215 17.5555 11.3314C17.391 11.4413 17.1978 11.5 17 11.5H16V17.5C16 17.7652 15.8946 18.0196 15.7071 18.2071C15.5196 18.3947 15.2652 18.5 15 18.5H13C12.7348 18.5 12.4804 18.3947 12.2929 18.2071C12.1054 18.0196 12 17.7652 12 17.5V14.5C12 14.2348 11.8946 13.9805 11.7071 13.7929C11.5196 13.6054 11.2652 13.5 11 13.5H9C8.73478 13.5 8.48043 13.6054 8.29289 13.7929C8.10536 13.9805 8 14.2348 8 14.5V17.5C8 17.7652 7.89464 18.0196 7.70711 18.2071C7.51957 18.3947 7.26522 18.5 7 18.5H5C4.73478 18.5 4.48043 18.3947 4.29289 18.2071C4.10536 18.0196 4 17.7652 4 17.5V11.5H3C2.80225 11.5 2.60895 11.4413 2.44454 11.3314C2.28013 11.2215 2.15199 11.0654 2.07632 10.8827C2.00065 10.7 1.98085 10.499 2.01942 10.305C2.05798 10.111 2.15319 9.93288 2.293 9.79303L9.293 2.79303Z" fill="#525463"/>
</svg>