<svg xmlns="http://www.w3.org/2000/svg" width="24" height="25" viewBox="0 0 24 25" fill="none">
  <path fill-rule="evenodd" clip-rule="evenodd" d="M7.502 6.5H14.63C15.5242 6.50132 16.3814 6.85749 17.0133 7.49028C17.6451 8.12307 18 8.98076 18 9.875V19.25C18.7956 19.25 19.5587 18.9339 20.1213 18.3713C20.6839 17.8087 21 17.0456 21 16.25V6.608C21 5.103 19.875 3.797 18.336 3.668C18.1118 3.64979 17.8874 3.63312 17.663 3.618C17.4099 3.13029 17.0276 2.72147 16.558 2.43614C16.0884 2.15082 15.5495 1.99995 15 2H13.5C12.9505 1.99995 12.4116 2.15082 11.942 2.43614C11.4724 2.72147 11.0901 3.13029 10.837 3.618C10.6117 3.63333 10.3873 3.65 10.164 3.668C8.662 3.795 7.554 5.042 7.502 6.5ZM13.5 3.5C13.1022 3.5 12.7206 3.65804 12.4393 3.93934C12.158 4.22064 12 4.60218 12 5H16.5C16.5 4.60218 16.342 4.22064 16.0607 3.93934C15.7794 3.65804 15.3978 3.5 15 3.5H13.5Z" fill="#525463"/>
  <path fill-rule="evenodd" clip-rule="evenodd" d="M3 9.875C3 8.839 3.84 8 4.875 8H14.625C15.661 8 16.5 8.84 16.5 9.875V21.125C16.5 22.16 15.66 23 14.625 23H4.875C4.37772 23 3.90081 22.8025 3.54917 22.4508C3.19754 22.0992 3 21.6223 3 21.125V9.875ZM6 12.5C6 12.3011 6.07902 12.1103 6.21967 11.9697C6.36032 11.829 6.55109 11.75 6.75 11.75H6.758C6.95691 11.75 7.14768 11.829 7.28833 11.9697C7.42898 12.1103 7.508 12.3011 7.508 12.5V12.508C7.508 12.7069 7.42898 12.8977 7.28833 13.0383C7.14768 13.179 6.95691 13.258 6.758 13.258H6.75C6.55109 13.258 6.36032 13.179 6.21967 13.0383C6.07902 12.8977 6 12.7069 6 12.508V12.5ZM8.25 12.5C8.25 12.3011 8.32902 12.1103 8.46967 11.9697C8.61032 11.829 8.80109 11.75 9 11.75H12.75C12.9489 11.75 13.1397 11.829 13.2803 11.9697C13.421 12.1103 13.5 12.3011 13.5 12.5C13.5 12.6989 13.421 12.8897 13.2803 13.0303C13.1397 13.171 12.9489 13.25 12.75 13.25H9C8.80109 13.25 8.61032 13.171 8.46967 13.0303C8.32902 12.8897 8.25 12.6989 8.25 12.5ZM6 15.5C6 15.3011 6.07902 15.1103 6.21967 14.9697C6.36032 14.829 6.55109 14.75 6.75 14.75H6.758C6.95691 14.75 7.14768 14.829 7.28833 14.9697C7.42898 15.1103 7.508 15.3011 7.508 15.5V15.508C7.508 15.7069 7.42898 15.8977 7.28833 16.0383C7.14768 16.179 6.95691 16.258 6.758 16.258H6.75C6.55109 16.258 6.36032 16.179 6.21967 16.0383C6.07902 15.8977 6 15.7069 6 15.508V15.5ZM8.25 15.5C8.25 15.3011 8.32902 15.1103 8.46967 14.9697C8.61032 14.829 8.80109 14.75 9 14.75H12.75C12.9489 14.75 13.1397 14.829 13.2803 14.9697C13.421 15.1103 13.5 15.3011 13.5 15.5C13.5 15.6989 13.421 15.8897 13.2803 16.0303C13.1397 16.171 12.9489 16.25 12.75 16.25H9C8.80109 16.25 8.61032 16.171 8.46967 16.0303C8.32902 15.8897 8.25 15.6989 8.25 15.5ZM6 18.5C6 18.3011 6.07902 18.1103 6.21967 17.9697C6.36032 17.829 6.55109 17.75 6.75 17.75H6.758C6.95691 17.75 7.14768 17.829 7.28833 17.9697C7.42898 18.1103 7.508 18.3011 7.508 18.5V18.508C7.508 18.7069 7.42898 18.8977 7.28833 19.0383C7.14768 19.179 6.95691 19.258 6.758 19.258H6.75C6.55109 19.258 6.36032 19.179 6.21967 19.0383C6.07902 18.8977 6 18.7069 6 18.508V18.5ZM8.25 18.5C8.25 18.3011 8.32902 18.1103 8.46967 17.9697C8.61032 17.829 8.80109 17.75 9 17.75H12.75C12.9489 17.75 13.1397 17.829 13.2803 17.9697C13.421 18.1103 13.5 18.3011 13.5 18.5C13.5 18.6989 13.421 18.8897 13.2803 19.0303C13.1397 19.171 12.9489 19.25 12.75 19.25H9C8.80109 19.25 8.61032 19.171 8.46967 19.0303C8.32902 18.8897 8.25 18.6989 8.25 18.5Z" fill="#525463"/>
</svg>