<svg xmlns="http://www.w3.org/2000/svg" width="24" height="25" viewBox="0 0 24 25" fill="none">
  <path fill-rule="evenodd" clip-rule="evenodd" d="M4.848 3.27101C7.21608 2.92289 9.60647 2.74876 12 2.75001C14.43 2.75001 16.817 2.92801 19.152 3.27001C21.13 3.56201 22.5 5.29401 22.5 7.24001V13.26C22.5 15.206 21.13 16.938 19.152 17.23C17.9983 17.399 16.8389 17.5267 15.676 17.613C15.6168 17.6169 15.5593 17.6342 15.5079 17.6637C15.4564 17.6931 15.4123 17.734 15.379 17.783L12.624 21.916C12.5555 22.0187 12.4627 22.1029 12.3539 22.1612C12.245 22.2194 12.1235 22.2499 12 22.2499C11.8765 22.2499 11.755 22.2194 11.6461 22.1612C11.5373 22.1029 11.4445 22.0187 11.376 21.916L8.621 17.784C8.58768 17.735 8.54361 17.6941 8.49214 17.6647C8.44068 17.6352 8.38317 17.6179 8.324 17.614C7.16112 17.5271 6.00172 17.3987 4.848 17.229C2.87 16.939 1.5 15.205 1.5 13.259V7.24101C1.5 5.29501 2.87 3.56101 4.848 3.27101ZM6.75 8.75001C6.75 8.55109 6.82902 8.36033 6.96967 8.21968C7.11032 8.07902 7.30109 8.00001 7.5 8.00001H16.5C16.6989 8.00001 16.8897 8.07902 17.0303 8.21968C17.171 8.36033 17.25 8.55109 17.25 8.75001C17.25 8.94892 17.171 9.13968 17.0303 9.28034C16.8897 9.42099 16.6989 9.50001 16.5 9.50001H7.5C7.30109 9.50001 7.11032 9.42099 6.96967 9.28034C6.82902 9.13968 6.75 8.94892 6.75 8.75001ZM7.5 11C7.30109 11 7.11032 11.079 6.96967 11.2197C6.82902 11.3603 6.75 11.5511 6.75 11.75C6.75 11.9489 6.82902 12.1397 6.96967 12.2803C7.11032 12.421 7.30109 12.5 7.5 12.5H12C12.1989 12.5 12.3897 12.421 12.5303 12.2803C12.671 12.1397 12.75 11.9489 12.75 11.75C12.75 11.5511 12.671 11.3603 12.5303 11.2197C12.3897 11.079 12.1989 11 12 11H7.5Z" fill="#525463"/>
</svg>